<svg width="207" height="52" viewBox="0 0 207 52" fill="none" xmlns="http://www.w3.org/2000/svg">
<path d="M31.2723 36.4002L27.7644 39.8505L24.2595 36.4002L27.7644 32.95L31.2723 36.4002ZM39.7767 28.0224L45.7829 33.9379L49.2878 30.4877L39.7767 21.1249L30.2657 30.4877L33.7706 33.9379L39.7767 28.0224ZM51.7921 32.95L48.2872 36.4002L51.7921 39.8505L55.2939 36.4002L51.7921 32.95ZM39.7767 44.7781L33.7706 38.8655L30.2657 42.3128L39.7767 51.6755L49.2878 42.3128L45.7829 38.8655L39.7767 44.7781ZM39.7767 39.8505L43.2816 36.4002L39.7767 32.95L36.2719 36.4002L39.7767 39.8505ZM76.7658 40.1818V40.134C76.7658 37.8836 75.553 36.7584 73.5792 36.0182C74.792 35.3467 75.8168 34.2931 75.8168 32.4038V32.3561C75.8168 29.7236 73.6763 28.0224 70.1987 28.0224H62.3036V44.7781H70.3988C74.2402 44.7781 76.7718 43.247 76.7718 40.1818H76.7658ZM72.0966 33.0187C72.0966 34.2632 71.0506 34.7915 69.3983 34.7915H65.951V31.2547H69.6469C71.2265 31.2547 72.1027 31.8755 72.1027 32.9769L72.0966 33.0187ZM73.0456 39.7221C73.0456 40.9667 72.0481 41.5398 70.3927 41.5398H65.951V37.8597H70.2775C72.1997 37.8597 73.0517 38.5551 73.0517 39.6803L73.0456 39.7221ZM84.6335 44.7781V28.0224H80.877V44.7781H84.6335ZM104.762 44.7781V28.0224H101.054V38.3402L93.0803 28.0224H89.627V44.7781H93.3229V34.126L101.564 44.7781H104.762ZM125.503 44.7781L118.196 27.903H114.743L107.451 44.7781H111.269L112.83 41.0204H120.028L121.583 44.7781H125.503ZM118.697 37.7642H114.161L116.423 32.3322L118.697 37.7642ZM143.352 44.7781V28.0224H139.644V38.3402L131.667 28.0224H128.217V44.7781H131.91V34.126L140.153 44.7781H143.352ZM162.68 42.074L160.3 39.7042C158.963 40.8981 157.772 41.6651 155.825 41.6651C152.909 41.6651 150.889 39.2774 150.889 36.4002V36.3525C150.889 33.4813 152.957 31.1354 155.825 31.1354C157.526 31.1354 158.857 31.8517 160.179 33.0246L162.553 30.3206C160.973 28.7895 159.054 27.7359 155.843 27.7359C150.616 27.7359 146.969 31.6368 146.969 36.3913V36.439C146.969 41.2502 150.689 45.0556 155.698 45.0556C158.975 45.0646 160.919 43.9155 162.668 42.074H162.68ZM178.658 44.7781V41.495H169.405V37.9701H177.43V34.6871H169.405V31.3025H178.525V28.0194H165.685V44.7751L178.658 44.7781Z" fill="#F0B90B"/>
</svg>
