<svg width="24" height="24" viewBox="0 0 24 24" fill="none" xmlns="http://www.w3.org/2000/svg">
<path d="M6.90012 9.1L11.6701 6.98C11.8801 6.89 12.1201 6.89 12.3201 6.98L17.0901 9.1C17.5101 9.29 17.9001 8.78 17.6101 8.42L12.6101 2.31C12.2701 1.89 11.7101 1.89 11.3701 2.31L6.37009 8.42C6.09009 8.78 6.48012 9.29 6.90012 9.1Z" fill="white"/>
<path d="M6.90007 14.9L11.68 17.02C11.89 17.11 12.1301 17.11 12.3301 17.02L17.11 14.9C17.53 14.71 17.92 15.22 17.63 15.58L12.63 21.69C12.29 22.11 11.7301 22.11 11.3901 21.69L6.39006 15.58C6.09006 15.22 6.47007 14.71 6.90007 14.9Z" fill="white"/>
<path d="M11.7801 9.49L7.65006 11.55C7.28006 11.73 7.28006 12.26 7.65006 12.44L11.7801 14.5C11.9201 14.57 12.09 14.57 12.23 14.5L16.36 12.44C16.73 12.26 16.73 11.73 16.36 11.55L12.23 9.49C12.08 9.42 11.9201 9.42 11.7801 9.49Z" fill="white"/>
</svg>
