<svg width="24" height="24" viewBox="0 0 24 24" fill="none" xmlns="http://www.w3.org/2000/svg">
<path d="M14.25 6.10352e-05C9.13533 2.94703 9.74998 11.2501 9.74998 11.2501C9.74998 11.2501 7.50001 10.5 7.50001 7.12508C4.81561 8.68164 3 11.6735 3 15.0001C3 19.9706 7.02944 24.0001 12 24.0001C16.9706 24.0001 21 19.9706 21 15.0001C21 7.68757 14.25 6.18755 14.25 6.10352e-05V6.10352e-05ZM12.7906 20.899C10.982 21.3499 9.15032 20.2493 8.69933 18.4407C8.24842 16.6322 9.34897 14.8003 11.1576 14.3494C15.5239 13.2608 16.0711 10.8054 16.0711 10.8054C16.0711 10.8054 18.2485 19.5381 12.7906 20.899Z" fill="#FF6D00"/>
</svg>
