<svg width="125" height="32" viewBox="0 0 125 32" fill="none" xmlns="http://www.w3.org/2000/svg">
<path d="M8.88 14.192C8.624 13.7227 8.272 13.3653 7.824 13.12C7.376 12.8747 6.85333 12.752 6.256 12.752C5.59467 12.752 5.008 12.9013 4.496 13.2C3.984 13.4987 3.584 13.9253 3.296 14.48C3.008 15.0347 2.864 15.6747 2.864 16.4C2.864 17.1467 3.008 17.7973 3.296 18.352C3.59467 18.9067 4.00533 19.3333 4.528 19.632C5.05067 19.9307 5.65867 20.08 6.352 20.08C7.20533 20.08 7.904 19.856 8.448 19.408C8.992 18.9493 9.34933 18.3147 9.52 17.504H5.68V15.792H11.728V17.744C11.5787 18.5227 11.2587 19.2427 10.768 19.904C10.2773 20.5653 9.64267 21.0987 8.864 21.504C8.096 21.8987 7.232 22.096 6.272 22.096C5.19467 22.096 4.21867 21.856 3.344 21.376C2.48 20.8853 1.79733 20.208 1.296 19.344C0.805333 18.48 0.56 17.4987 0.56 16.4C0.56 15.3013 0.805333 14.32 1.296 13.456C1.79733 12.5813 2.48 11.904 3.344 11.424C4.21867 10.9333 5.18933 10.688 6.256 10.688C7.51467 10.688 8.608 10.9973 9.536 11.616C10.464 12.224 11.104 13.0827 11.456 14.192H8.88ZM21.6253 17.376C21.6253 17.696 21.6039 17.984 21.5613 18.24H15.0813C15.1346 18.88 15.3586 19.3813 15.7533 19.744C16.1479 20.1067 16.6333 20.288 17.2093 20.288C18.0413 20.288 18.6333 19.9307 18.9853 19.216H21.4013C21.1453 20.0693 20.6546 20.7733 19.9293 21.328C19.2039 21.872 18.3133 22.144 17.2573 22.144C16.4039 22.144 15.6359 21.9573 14.9533 21.584C14.2813 21.2 13.7533 20.6613 13.3693 19.968C12.9959 19.2747 12.8092 18.4747 12.8092 17.568C12.8092 16.6507 12.9959 15.8453 13.3693 15.152C13.7426 14.4587 14.2653 13.9253 14.9373 13.552C15.6093 13.1787 16.3826 12.992 17.2573 12.992C18.0999 12.992 18.8519 13.1733 19.5133 13.536C20.1853 13.8987 20.7026 14.416 21.0653 15.088C21.4386 15.7493 21.6253 16.512 21.6253 17.376ZM19.3053 16.736C19.2946 16.16 19.0866 15.7013 18.6813 15.36C18.2759 15.008 17.7799 14.832 17.1933 14.832C16.6386 14.832 16.1693 15.0027 15.7853 15.344C15.4119 15.6747 15.1826 16.1387 15.0973 16.736H19.3053ZM25.8683 14.976V19.264C25.8683 19.5627 25.9376 19.7813 26.0763 19.92C26.2256 20.048 26.4709 20.112 26.8123 20.112H27.8523V22H26.4443C24.5563 22 23.6123 21.0827 23.6123 19.248V14.976H22.5563V13.136H23.6123V10.944H25.8683V13.136H27.8523V14.976H25.8683ZM37.1319 22.112C36.3532 22.112 35.6492 21.9787 35.0199 21.712C34.4012 21.4453 33.9105 21.0613 33.5479 20.56C33.1852 20.0587 32.9985 19.4667 32.9879 18.784H35.3879C35.4199 19.2427 35.5799 19.6053 35.8679 19.872C36.1665 20.1387 36.5719 20.272 37.0839 20.272C37.6065 20.272 38.0172 20.1493 38.3159 19.904C38.6145 19.648 38.7639 19.3173 38.7639 18.912C38.7639 18.5813 38.6625 18.3093 38.4599 18.096C38.2572 17.8827 38.0012 17.7173 37.6919 17.6C37.3932 17.472 36.9772 17.3333 36.4439 17.184C35.7185 16.9707 35.1265 16.7627 34.6679 16.56C34.2199 16.3467 33.8305 16.032 33.4999 15.616C33.1799 15.1893 33.0199 14.624 33.0199 13.92C33.0199 13.2587 33.1852 12.6827 33.5159 12.192C33.8465 11.7013 34.3105 11.328 34.9079 11.072C35.5052 10.8053 36.1879 10.672 36.9559 10.672C38.1079 10.672 39.0412 10.9547 39.7559 11.52C40.4812 12.0747 40.8812 12.8533 40.9559 13.856H38.4919C38.4705 13.472 38.3052 13.1573 37.9959 12.912C37.6972 12.656 37.2972 12.528 36.7959 12.528C36.3585 12.528 36.0065 12.64 35.7399 12.864C35.4839 13.088 35.3559 13.4133 35.3559 13.84C35.3559 14.1387 35.4519 14.3893 35.6439 14.592C35.8465 14.784 36.0919 14.944 36.3799 15.072C36.6785 15.1893 37.0945 15.328 37.6279 15.488C38.3532 15.7013 38.9452 15.9147 39.4039 16.128C39.8625 16.3413 40.2572 16.6613 40.5879 17.088C40.9185 17.5147 41.0839 18.0747 41.0839 18.768C41.0839 19.3653 40.9292 19.92 40.6199 20.432C40.3105 20.944 39.8572 21.3547 39.2599 21.664C38.6625 21.9627 37.9532 22.112 37.1319 22.112ZM45.6339 14.976V19.264C45.6339 19.5627 45.7032 19.7813 45.8419 19.92C45.9912 20.048 46.2365 20.112 46.5779 20.112H47.6179V22H46.2099C44.3219 22 43.3779 21.0827 43.3779 19.248V14.976H42.3219V13.136H43.3779V10.944H45.6339V13.136H47.6179V14.976H45.6339ZM48.653 17.536C48.653 16.64 48.829 15.8453 49.181 15.152C49.5437 14.4587 50.029 13.9253 50.637 13.552C51.2557 13.1787 51.9437 12.992 52.701 12.992C53.3623 12.992 53.9383 13.1253 54.429 13.392C54.9303 13.6587 55.3303 13.9947 55.629 14.4V13.136H57.885V22H55.629V20.704C55.341 21.12 54.941 21.4667 54.429 21.744C53.9277 22.0107 53.3463 22.144 52.685 22.144C51.9383 22.144 51.2557 21.952 50.637 21.568C50.029 21.184 49.5437 20.6453 49.181 19.952C48.829 19.248 48.653 18.4427 48.653 17.536ZM55.629 17.568C55.629 17.024 55.5223 16.56 55.309 16.176C55.0957 15.7813 54.8077 15.4827 54.445 15.28C54.0823 15.0667 53.693 14.96 53.277 14.96C52.861 14.96 52.477 15.0613 52.125 15.264C51.773 15.4667 51.485 15.7653 51.261 16.16C51.0477 16.544 50.941 17.0027 50.941 17.536C50.941 18.0693 51.0477 18.5387 51.261 18.944C51.485 19.3387 51.773 19.6427 52.125 19.856C52.4877 20.0693 52.8717 20.176 53.277 20.176C53.693 20.176 54.0823 20.0747 54.445 19.872C54.8077 19.6587 55.0957 19.36 55.309 18.976C55.5223 18.5813 55.629 18.112 55.629 17.568ZM62.3128 14.512C62.6008 14.0427 62.9741 13.6747 63.4328 13.408C63.9021 13.1413 64.4354 13.008 65.0328 13.008V15.36H64.4408C63.7368 15.36 63.2034 15.5253 62.8408 15.856C62.4888 16.1867 62.3128 16.7627 62.3128 17.584V22H60.0728V13.136H62.3128V14.512ZM69.1495 14.976V19.264C69.1495 19.5627 69.2188 19.7813 69.3575 19.92C69.5068 20.048 69.7522 20.112 70.0935 20.112H71.1335V22H69.7255C67.8375 22 66.8935 21.0827 66.8935 19.248V14.976H65.8375V13.136H66.8935V10.944H69.1495V13.136H71.1335V14.976H69.1495ZM80.9846 17.376C80.9846 17.696 80.9633 17.984 80.9206 18.24H74.4406C74.494 18.88 74.718 19.3813 75.1126 19.744C75.5073 20.1067 75.9926 20.288 76.5686 20.288C77.4006 20.288 77.9926 19.9307 78.3446 19.216H80.7606C80.5046 20.0693 80.014 20.7733 79.2886 21.328C78.5633 21.872 77.6726 22.144 76.6166 22.144C75.7633 22.144 74.9953 21.9573 74.3126 21.584C73.6406 21.2 73.1126 20.6613 72.7286 19.968C72.3553 19.2747 72.1686 18.4747 72.1686 17.568C72.1686 16.6507 72.3553 15.8453 72.7286 15.152C73.102 14.4587 73.6246 13.9253 74.2966 13.552C74.9686 13.1787 75.742 12.992 76.6166 12.992C77.4593 12.992 78.2113 13.1733 78.8726 13.536C79.5446 13.8987 80.062 14.416 80.4246 15.088C80.798 15.7493 80.9846 16.512 80.9846 17.376ZM78.6646 16.736C78.654 16.16 78.446 15.7013 78.0406 15.36C77.6353 15.008 77.1393 14.832 76.5526 14.832C75.998 14.832 75.5286 15.0027 75.1446 15.344C74.7713 15.6747 74.542 16.1387 74.4566 16.736H78.6646ZM82.0436 17.536C82.0436 16.64 82.2196 15.8453 82.5716 15.152C82.9343 14.4587 83.425 13.9253 84.0436 13.552C84.6623 13.1787 85.3503 12.992 86.1076 12.992C86.6836 12.992 87.233 13.12 87.7556 13.376C88.2783 13.6213 88.6943 13.952 89.0036 14.368V10.16H91.2756V22H89.0036V20.688C88.7263 21.1253 88.337 21.4773 87.8356 21.744C87.3343 22.0107 86.753 22.144 86.0916 22.144C85.345 22.144 84.6623 21.952 84.0436 21.568C83.425 21.184 82.9343 20.6453 82.5716 19.952C82.2196 19.248 82.0436 18.4427 82.0436 17.536ZM89.0196 17.568C89.0196 17.024 88.913 16.56 88.6996 16.176C88.4863 15.7813 88.1983 15.4827 87.8356 15.28C87.473 15.0667 87.0836 14.96 86.6676 14.96C86.2516 14.96 85.8676 15.0613 85.5156 15.264C85.1636 15.4667 84.8756 15.7653 84.6516 16.16C84.4383 16.544 84.3316 17.0027 84.3316 17.536C84.3316 18.0693 84.4383 18.5387 84.6516 18.944C84.8756 19.3387 85.1636 19.6427 85.5156 19.856C85.8783 20.0693 86.2623 20.176 86.6676 20.176C87.0836 20.176 87.473 20.0747 87.8356 19.872C88.1983 19.6587 88.4863 19.36 88.6996 18.976C88.913 18.5813 89.0196 18.112 89.0196 17.568Z" fill="white"/>
<path d="M0 23.6H92.3636V24.4H0V23.6Z" fill="white"/>
<path d="M121.5 26H104.5" stroke="white" stroke-width="1.5" stroke-miterlimit="10" stroke-linecap="round" stroke-linejoin="round"/>
<path d="M120 7.5L106 21.5" stroke="white" stroke-width="1.5" stroke-miterlimit="10" stroke-linecap="round" stroke-linejoin="round"/>
<path d="M120 17.77V7.5H109.73" stroke="white" stroke-width="1.5" stroke-miterlimit="10" stroke-linecap="round" stroke-linejoin="round"/>
</svg>
