<svg width="80" height="80" viewBox="0 0 80 80" fill="none" xmlns="http://www.w3.org/2000/svg">
<circle cx="40" cy="40" r="40" fill="#1E50FF"/>
<path d="M46.1082 27.8604C42.0742 27.0465 37.9257 27.0465 33.8917 27.8604C31.3651 28.3702 29.3318 30.3048 28.6342 32.8627L28.5749 33.0804C27.7527 36.0953 27.7527 39.2859 28.5749 42.3008L28.6342 42.5184C29.3318 45.0763 31.3651 47.0109 33.8917 47.5207C35.5889 47.8632 37.3065 48.0615 39.0273 48.1158V50.7421H36.7577C36.2206 50.7421 35.7851 51.1916 35.7851 51.746C35.7851 52.3005 36.2206 52.75 36.7577 52.75H43.2421C43.7793 52.75 44.2147 52.3005 44.2147 51.746C44.2147 51.1916 43.7793 50.7421 43.2421 50.7421H40.9726V48.1158C42.6933 48.0615 44.4109 47.8632 46.1082 47.5207C48.6348 47.0109 50.6681 45.0763 51.3656 42.5184L51.425 42.3007C52.2471 39.2859 52.2471 36.0953 51.425 33.0804L51.3656 32.8627C50.6681 30.3048 48.6348 28.3702 46.1082 27.8604Z" fill="white"/>
</svg>
