<svg width="208" height="52" viewBox="0 0 208 52" fill="none" xmlns="http://www.w3.org/2000/svg">
<path d="M164.184 37.0135C163.336 36.4445 162.412 36.0652 161.487 35.572C160.909 35.2686 160.292 34.9651 159.791 34.5478C158.944 33.865 159.098 32.4994 160.023 31.8925C161.294 31.0579 163.414 31.5131 163.645 33.2201C163.645 33.2581 163.683 33.296 163.722 33.296H165.649C165.687 33.296 165.726 33.2581 165.726 33.2201C165.61 32.0442 165.148 31.0579 164.3 30.413C163.491 29.8061 162.566 29.5026 161.564 29.5026C156.477 29.5026 156.015 34.8133 158.751 36.4824C159.059 36.6721 161.757 37.9998 162.72 38.6067C163.683 39.1757 163.953 40.2379 163.568 41.0724C163.182 41.8311 162.219 42.3622 161.256 42.2863C160.177 42.2104 159.367 41.6414 159.059 40.7689C159.021 40.6172 158.982 40.3137 158.982 40.162C158.982 40.1241 158.944 40.0861 158.905 40.0861H156.824C156.786 40.0861 156.747 40.1241 156.747 40.162C156.747 41.6414 157.132 42.476 158.134 43.2346C159.098 43.9554 160.138 44.2589 161.256 44.2589C164.107 44.2589 165.571 42.6656 165.88 41.0345C166.111 39.4413 165.649 37.9998 164.184 37.0135Z" fill="#8F9CA9"/>
<path d="M73.3584 29.8058H72.4336H71.4317C71.3932 29.8058 71.3546 29.8438 71.3546 29.8438L69.6206 35.4201C69.5821 35.496 69.505 35.496 69.4665 35.4201L67.7324 29.8438C67.7324 29.8058 67.6939 29.8058 67.6553 29.8058H66.6534H65.7286H64.4955C64.457 29.8058 64.4185 29.8438 64.4185 29.8817V44.107C64.4185 44.1449 64.457 44.1829 64.4955 44.1829H66.5764C66.6149 44.1829 66.6534 44.1449 66.6534 44.107V33.2958C66.6534 33.2199 66.7691 33.182 66.8076 33.2578L68.5416 38.8721L68.6572 39.2514C68.6572 39.2894 68.6958 39.2894 68.7343 39.2894H70.3527C70.3913 39.2894 70.4298 39.2514 70.4298 39.2514L70.5454 38.8721L72.2795 33.2578C72.318 33.182 72.4336 33.182 72.4336 33.2958V44.107C72.4336 44.1449 72.4721 44.1829 72.5107 44.1829H74.5915C74.63 44.1829 74.6686 44.1449 74.6686 44.107V29.8817C74.6686 29.8438 74.63 29.8058 74.5915 29.8058H73.3584Z" fill="#8F9CA9"/>
<path d="M132.162 29.8058C132.123 29.8058 132.085 29.8438 132.085 29.8438L130.351 35.4201C130.312 35.496 130.235 35.496 130.197 35.4201L128.463 29.8438C128.463 29.8058 128.424 29.8058 128.386 29.8058H125.187C125.149 29.8058 125.11 29.8438 125.11 29.8817V44.107C125.11 44.1449 125.149 44.1829 125.187 44.1829H127.268C127.307 44.1829 127.345 44.1449 127.345 44.107V33.2958C127.345 33.2199 127.461 33.182 127.499 33.2578L129.233 38.8721L129.349 39.2514C129.349 39.2894 129.387 39.2894 129.426 39.2894H131.044C131.083 39.2894 131.121 39.2514 131.121 39.2514L131.237 38.8721L132.971 33.2578C133.01 33.182 133.125 33.182 133.125 33.2958V44.107C133.125 44.1449 133.164 44.1829 133.202 44.1829H135.283C135.322 44.1829 135.36 44.1449 135.36 44.107V29.8817C135.36 29.8438 135.322 29.8058 135.283 29.8058H132.162Z" fill="#8F9CA9"/>
<path d="M105.188 29.8058H101.296H99.2151H95.2846C95.2461 29.8058 95.2075 29.8438 95.2075 29.8817V31.6646C95.2075 31.7025 95.2461 31.7405 95.2846 31.7405H99.0995V44.107C99.0995 44.1449 99.138 44.1829 99.1766 44.1829H101.257C101.296 44.1829 101.335 44.1449 101.335 44.107V31.7405H105.149C105.188 31.7405 105.226 31.7025 105.226 31.6646V29.8817C105.265 29.8438 105.226 29.8058 105.188 29.8058Z" fill="#8F9CA9"/>
<path d="M117.519 44.1829H119.407C119.445 44.1829 119.484 44.1449 119.484 44.0691L115.554 29.8059C115.554 29.768 115.515 29.768 115.476 29.768H114.744H113.473H112.74C112.702 29.768 112.663 29.8059 112.663 29.8059L108.733 44.0691C108.733 44.107 108.771 44.1829 108.81 44.1829H110.698C110.737 44.1829 110.775 44.1449 110.775 44.1449L111.931 39.9722C111.931 39.9343 111.97 39.9343 112.008 39.9343H116.209C116.247 39.9343 116.286 39.9722 116.286 39.9722L117.442 44.1449C117.442 44.1449 117.48 44.1829 117.519 44.1829ZM112.509 37.8858L114.051 32.3096C114.089 32.2337 114.166 32.2337 114.205 32.3096L115.746 37.8858C115.746 37.9238 115.708 37.9996 115.669 37.9996H112.625C112.548 37.9996 112.509 37.9238 112.509 37.8858Z" fill="#8F9CA9"/>
<path d="M149.965 44.1829H151.853C151.892 44.1829 151.93 44.1449 151.93 44.0691L148 29.8059C148 29.768 147.961 29.768 147.922 29.768H147.19H145.919H145.187C145.148 29.768 145.109 29.8059 145.109 29.8059L141.179 44.0691C141.179 44.107 141.217 44.1829 141.256 44.1829H143.144C143.183 44.1829 143.221 44.1449 143.221 44.1449L144.377 39.9722C144.377 39.9343 144.416 39.9343 144.454 39.9343H148.655C148.693 39.9343 148.732 39.9722 148.732 39.9722L149.888 44.1449C149.888 44.1449 149.926 44.1829 149.965 44.1829ZM144.955 37.8858L146.497 32.3096C146.535 32.2337 146.612 32.2337 146.651 32.3096L148.192 37.8858C148.192 37.9238 148.154 37.9996 148.115 37.9996H145.071C144.994 37.9996 144.955 37.9238 144.955 37.8858Z" fill="#8F9CA9"/>
<path d="M83.1461 42.0585V37.6582C83.1461 37.6203 83.1847 37.5823 83.2232 37.5823H88.8107C88.8492 37.5823 88.8878 37.5444 88.8878 37.5065V35.7236C88.8878 35.6856 88.8492 35.6477 88.8107 35.6477H83.2232C83.1847 35.6477 83.1461 35.6098 83.1461 35.5718V31.8163C83.1461 31.7784 83.1847 31.7405 83.2232 31.7405H89.5428C89.5814 31.7405 89.6199 31.7025 89.6199 31.6646V29.8817C89.6199 29.8438 89.5814 29.8058 89.5428 29.8058H83.1461H80.9882C80.9497 29.8058 80.9111 29.8438 80.9111 29.8817V31.7405V35.6856V37.6203V42.1724V44.107C80.9111 44.1449 80.9497 44.1829 80.9882 44.1829H83.1461H89.8126C89.8511 44.1829 89.8896 44.1449 89.8896 44.107V42.2482C89.8896 42.2103 89.8511 42.1724 89.8126 42.1724H83.1847C83.1847 42.1344 83.1461 42.0965 83.1461 42.0585Z" fill="#8F9CA9"/>
<path d="M183.297 44.0311L176.053 36.672C176.014 36.634 176.014 36.5961 176.053 36.5582L182.565 29.8818C182.603 29.8439 182.565 29.768 182.526 29.768H179.868C179.829 29.768 179.829 29.768 179.829 29.8059L174.28 35.496C174.241 35.534 174.164 35.496 174.164 35.4581V29.9197C174.164 29.8818 174.126 29.8439 174.087 29.8439H171.968C171.929 29.8439 171.891 29.8818 171.891 29.9197V44.1449C171.891 44.1829 171.929 44.2208 171.968 44.2208H174.049C174.087 44.2208 174.126 44.1829 174.126 44.1449V37.8858C174.126 37.81 174.203 37.772 174.241 37.8479L180.484 44.2208L180.523 44.2587H183.181C183.297 44.1829 183.336 44.0691 183.297 44.0311Z" fill="#8F9CA9"/>
<path d="M50.122 22.1433L37.4827 31.3991L39.8333 25.9367L50.122 22.1433Z" fill="#E17726" stroke="#E17726" stroke-width="0.385345" stroke-linecap="round" stroke-linejoin="round"/>
<path d="M20.9128 22.1433L33.475 31.475L31.24 25.9367L20.9128 22.1433Z" fill="#E27625" stroke="#E27625" stroke-width="0.385345" stroke-linecap="round" stroke-linejoin="round"/>
<path d="M45.5751 43.5759L42.1841 48.659L49.4286 50.6315L51.4709 43.6897L45.5751 43.5759Z" fill="#E27625" stroke="#E27625" stroke-width="0.385345" stroke-linecap="round" stroke-linejoin="round"/>
<path d="M19.6028 43.6897L21.6451 50.6315L28.8511 48.659L25.4986 43.5759L19.6028 43.6897Z" fill="#E27625" stroke="#E27625" stroke-width="0.385345" stroke-linecap="round" stroke-linejoin="round"/>
<path d="M28.4657 35.0028L26.4619 37.9996L33.5908 38.303L33.3596 30.7163L28.4657 35.0028Z" fill="#E27625" stroke="#E27625" stroke-width="0.385345" stroke-linecap="round" stroke-linejoin="round"/>
<path d="M42.6078 35.0028L37.6368 30.6404L37.4827 38.303L44.6116 37.9996L42.6078 35.0028Z" fill="#E27625" stroke="#E27625" stroke-width="0.385345" stroke-linecap="round" stroke-linejoin="round"/>
<path d="M28.8511 48.659L33.1669 46.6106L29.4291 43.7277L28.8511 48.659Z" fill="#E27625" stroke="#E27625" stroke-width="0.385345" stroke-linecap="round" stroke-linejoin="round"/>
<path d="M37.9067 46.6106L42.1841 48.659L41.6061 43.7277L37.9067 46.6106Z" fill="#E27625" stroke="#E27625" stroke-width="0.385345" stroke-linecap="round" stroke-linejoin="round"/>
<path d="M42.1841 48.659L37.9067 46.6105L38.2536 49.3418L38.215 50.5177L42.1841 48.659Z" fill="#D5BFB2" stroke="#D5BFB2" stroke-width="0.385345" stroke-linecap="round" stroke-linejoin="round"/>
<path d="M28.8511 48.659L32.8587 50.5177L32.8201 49.3418L33.1669 46.6105L28.8511 48.659Z" fill="#D5BFB2" stroke="#D5BFB2" stroke-width="0.385345" stroke-linecap="round" stroke-linejoin="round"/>
<path d="M32.9357 41.9069L29.3521 40.8826L31.8568 39.7445L32.9357 41.9069Z" fill="#233447" stroke="#233447" stroke-width="0.385345" stroke-linecap="round" stroke-linejoin="round"/>
<path d="M38.1379 41.9069L39.1784 39.7445L41.7216 40.8826L38.1379 41.9069Z" fill="#233447" stroke="#233447" stroke-width="0.385345" stroke-linecap="round" stroke-linejoin="round"/>
<path d="M28.851 48.659L29.4675 43.5757L25.4985 43.6895L28.851 48.659Z" fill="#CC6228" stroke="#CC6228" stroke-width="0.385345" stroke-linecap="round" stroke-linejoin="round"/>
<path d="M41.606 43.5757L42.184 48.659L45.575 43.6895L41.606 43.5757Z" fill="#CC6228" stroke="#CC6228" stroke-width="0.385345" stroke-linecap="round" stroke-linejoin="round"/>
<path d="M44.6116 37.9997L37.4827 38.3032L38.1378 41.9069L39.1782 39.7446L41.7215 40.8827L44.6116 37.9997Z" fill="#CC6228" stroke="#CC6228" stroke-width="0.385345" stroke-linecap="round" stroke-linejoin="round"/>
<path d="M29.352 40.8825L31.8567 39.7445L32.9357 41.9067L33.5908 38.303L26.4619 37.9996L29.352 40.8825Z" fill="#CC6228" stroke="#CC6228" stroke-width="0.385345" stroke-linecap="round" stroke-linejoin="round"/>
<path d="M26.4619 37.9997L29.429 43.7277L29.3519 40.8827L26.4619 37.9997Z" fill="#E27525" stroke="#E27525" stroke-width="0.385345" stroke-linecap="round" stroke-linejoin="round"/>
<path d="M41.7216 40.8827L41.606 43.7277L44.6116 37.9997L41.7216 40.8827Z" fill="#E27525" stroke="#E27525" stroke-width="0.385345" stroke-linecap="round" stroke-linejoin="round"/>
<path d="M33.5909 38.303L32.9358 41.9068L33.745 46.1933L33.9377 40.5411L33.5909 38.303Z" fill="#E27525" stroke="#E27525" stroke-width="0.385345" stroke-linecap="round" stroke-linejoin="round"/>
<path d="M37.4826 38.303L37.1357 40.5411L37.2899 46.1933L38.1376 41.9068L37.4826 38.303Z" fill="#E27525" stroke="#E27525" stroke-width="0.385345" stroke-linecap="round" stroke-linejoin="round"/>
<path d="M38.138 41.9068L37.2903 46.1933L37.9068 46.6105L41.6061 43.7276L41.7217 40.8826L38.138 41.9068Z" fill="#F5841F" stroke="#F5841F" stroke-width="0.385345" stroke-linecap="round" stroke-linejoin="round"/>
<path d="M29.3521 40.8826L29.4291 43.7276L33.1669 46.6105L33.7449 46.1933L32.9357 41.9068L29.3521 40.8826Z" fill="#F5841F" stroke="#F5841F" stroke-width="0.385345" stroke-linecap="round" stroke-linejoin="round"/>
<path d="M38.2149 50.5177L38.2535 49.3418L37.9066 49.0762H33.1284L32.8201 49.3418L32.8586 50.5177L28.8511 48.659L30.2383 49.797L33.0899 51.7315H37.9452L40.7967 49.797L42.184 48.659L38.2149 50.5177Z" fill="#C0AC9D" stroke="#C0AC9D" stroke-width="0.385345" stroke-linecap="round" stroke-linejoin="round"/>
<path d="M37.9069 46.6106L37.2903 46.1934H33.7451L33.1671 46.6106L32.8203 49.3419L33.1286 49.0763H37.9069L38.2537 49.3419L37.9069 46.6106Z" fill="#8F9CA9" stroke="#8F9CA9" stroke-width="0.385345" stroke-linecap="round" stroke-linejoin="round"/>
<path d="M50.6616 32.0061L51.7406 26.8851L50.1222 22.1434L37.9067 31.0957L42.6079 35.0029L49.2359 36.8995L50.7002 35.2305L50.0836 34.7753L51.0855 33.8649L50.3148 33.2579L51.3167 32.4992L50.6616 32.0061Z" fill="#763E1A" stroke="#763E1A" stroke-width="0.385345" stroke-linecap="round" stroke-linejoin="round"/>
<path d="M19.333 26.8851L20.412 32.0061L19.7184 32.4992L20.7202 33.2579L19.9496 33.8649L20.99 34.7753L20.3349 35.2305L21.7992 36.8995L28.4657 35.0029L33.1669 31.0957L20.9129 22.1434L19.333 26.8851Z" fill="#763E1A" stroke="#763E1A" stroke-width="0.385345" stroke-linecap="round" stroke-linejoin="round"/>
<path d="M49.2358 36.8996L42.6079 35.0029L44.6116 37.9996L41.606 43.7277L45.575 43.6897H51.4708L49.2358 36.8996Z" fill="#F5841F" stroke="#F5841F" stroke-width="0.385345" stroke-linecap="round" stroke-linejoin="round"/>
<path d="M28.4657 35.0029L21.7992 36.8996L19.6028 43.6897H25.4985L29.429 43.7277L26.4619 37.9996L28.4657 35.0029Z" fill="#F5841F" stroke="#F5841F" stroke-width="0.385345" stroke-linecap="round" stroke-linejoin="round"/>
<path d="M37.4828 38.303L37.9067 31.0957L39.8334 25.9367H31.2402L33.1669 31.0957L33.5908 38.303L33.745 40.579V46.1932H37.2901V40.579L37.4828 38.303Z" fill="#F5841F" stroke="#F5841F" stroke-width="0.385345" stroke-linecap="round" stroke-linejoin="round"/>
</svg>
