<svg width="207" height="57" viewBox="0 0 207 57" fill="none" xmlns="http://www.w3.org/2000/svg">
<path d="M42.789 39.3835H40.9081C39.7796 39.3835 43.6249 44.6913 46.4045 45.288C47.0314 45.4114 47.3449 45.72 47.3449 46.3166V50.2049C47.324 50.9455 46.8851 51.2953 46.1537 51.1924C40.8454 50.3283 36.9792 47.5304 34.5758 42.778C34.2205 42.0991 33.9489 41.3997 33.7399 40.659C33.3428 39.4452 33.301 39.3835 31.9844 39.3424C30.3543 39.3012 29.2885 38.4783 28.9332 37.0176C28.5361 35.3718 29.8527 33.6436 31.6082 33.5408C31.859 33.5202 32.0889 33.5202 32.3397 33.5408C33.092 33.6025 33.4891 33.191 33.6772 32.5327C34.137 30.8869 34.8684 29.3233 35.8506 27.9244C36.6657 26.7517 37.0837 26.7106 38.1077 27.6775C38.8809 28.4181 39.6333 29.1999 40.4066 29.9405C40.9081 30.4137 41.0335 30.928 40.5946 31.5041C40.3648 31.8126 40.1767 32.1418 40.0095 32.4916C39.6542 33.2116 39.8423 33.5202 40.6573 33.5202C42.0784 33.5408 43.4787 33.5202 44.9207 33.5202C46.4254 33.5408 47.533 34.446 47.8883 35.9272C48.16 37.1205 47.4912 38.5812 46.1955 39.0543C45.4431 39.3424 44.5445 39.3012 43.7085 39.3629C43.416 39.4041 43.1025 39.3835 42.789 39.3835Z" fill="#007EA4"/>
<path d="M49.0585 21.5879C53.9697 21.7936 58.2957 24.18 61.2633 28.85C62.2874 30.4753 61.9948 31.9771 60.5319 32.8617C58.9645 33.8492 57.209 33.4378 56.2268 31.8742C54.743 29.5084 52.6531 28.0066 49.8736 27.4922C47.6583 27.1014 45.3595 27.5128 43.4368 28.6855C42.5591 29.2204 42.2874 29.1586 41.5559 28.4386L39.2153 26.1344C38.5465 25.435 38.5674 24.9618 39.3616 24.3858C41.8485 22.5959 45.255 21.5261 49.0585 21.5879ZM49.2675 48.2502V46.2752C49.2257 45.8226 49.5392 45.4317 49.999 45.37C52.7994 44.7939 54.8683 43.251 56.3312 40.8645C56.9791 39.7948 58.0031 39.3833 59.2153 39.5685C60.3229 39.733 61.1797 40.2885 61.6604 41.3171C61.9739 41.996 61.9321 42.7778 61.5768 43.4361C59.3406 47.6124 55.2236 50.472 50.4796 51.1509C49.6646 51.2538 49.2884 50.9658 49.2675 50.1634C49.2466 49.5463 49.2675 48.9085 49.2675 48.2502Z" fill="#1AA64A"/>
<path d="M72.3399 30.4549V43.7653H69.7693V30.4549H65.5896V28.3359H76.4778V30.4549H72.3399Z" fill="#007EA4"/>
<path d="M76.4775 38.7867C76.4566 38.0666 76.6029 37.3671 76.9164 36.7294C77.1881 36.071 77.6061 35.495 78.1285 35.0012C78.651 34.5075 79.2571 34.1166 79.9258 33.8697C81.3051 33.3348 82.8307 33.3348 84.21 33.8697C84.8997 34.1372 85.5057 34.5486 86.0073 35.063C86.5298 35.5567 86.9477 36.1533 87.2194 36.8117C87.7837 38.1283 87.8046 39.6096 87.2403 40.9262C86.9686 41.5846 86.5507 42.1606 86.0282 42.6544C84.9624 43.683 83.5204 44.2591 82.0157 44.2385C81.2842 44.2385 80.5737 44.115 79.884 43.8476C79.2153 43.5801 78.5883 43.1893 78.0867 42.6749C77.5643 42.1812 77.1672 41.5846 76.8746 40.9262C76.6238 40.2473 76.4984 39.5273 76.4775 38.7867ZM85.234 38.8278C85.2549 37.9432 84.9415 37.0997 84.3145 36.4619C83.7502 35.8447 82.9352 35.495 82.0784 35.5156C81.2215 35.5156 80.4274 35.8653 79.8422 36.4619C78.6092 37.7992 78.6092 39.8359 79.8422 41.1731C80.9916 42.3869 82.9352 42.4486 84.1682 41.3171C84.21 41.276 84.2727 41.2348 84.3145 41.1731C84.9415 40.5354 85.2549 39.6919 85.234 38.8278Z" fill="#007EA4"/>
<path d="M90.1662 43.8065V27.451H92.4859V37.9432L96.7492 33.7875H99.6124L95.0147 38.1901L100.072 43.7859H97.0418L92.465 38.6221V43.7859H90.1453V43.8065H90.1662Z" fill="#007EA4"/>
<path d="M100.302 38.7867C100.281 38.0666 100.428 37.3671 100.741 36.7294C101.013 36.071 101.431 35.495 101.953 35.0012C102.476 34.5075 103.082 34.1166 103.751 33.8697C105.13 33.3348 106.655 33.3348 108.035 33.8697C108.724 34.1372 109.33 34.5486 109.832 35.063C110.354 35.5567 110.772 36.1533 111.044 36.8117C111.608 38.1283 111.629 39.6096 111.065 40.9262C110.793 41.5846 110.375 42.1606 109.853 42.6544C108.787 43.683 107.345 44.2591 105.84 44.2385C105.109 44.2385 104.398 44.115 103.709 43.8476C103.04 43.5801 102.413 43.1893 101.911 42.6749C101.389 42.1812 100.992 41.5846 100.699 40.9262C100.449 40.2473 100.302 39.5273 100.302 38.7867ZM109.038 38.8278C109.059 37.9432 108.745 37.0997 108.118 36.4619C107.554 35.8447 106.739 35.495 105.882 35.5156C105.025 35.5156 104.231 35.8653 103.646 36.4619C102.434 37.7992 102.434 39.8359 103.646 41.1731C104.795 42.3869 106.739 42.4486 107.972 41.3171C108.014 41.276 108.077 41.2348 108.118 41.1731C108.745 40.5354 109.08 39.6919 109.038 38.8278Z" fill="#007EA4"/>
<path d="M121.556 36.6471C121.222 36.2563 120.804 35.9682 120.323 35.7831C119.842 35.5773 119.32 35.4539 118.797 35.4745C117.857 35.4745 117.063 35.7625 116.499 36.3797C115.934 36.9969 115.642 37.7787 115.642 38.7867C115.642 39.7948 115.934 40.6383 116.499 41.2555C117.063 41.8727 117.878 42.1607 118.902 42.1607C119.424 42.1813 119.947 42.0578 120.407 41.8521C120.866 41.6258 121.263 41.2966 121.556 40.9058V43.5597C121.117 43.8065 120.657 43.9711 120.177 44.0946C119.675 44.218 119.132 44.2797 118.609 44.2797C117.021 44.2797 115.725 43.7654 114.701 42.7779C113.677 41.7904 113.218 40.4737 113.218 38.869C113.218 37.2643 113.74 35.9477 114.785 34.9807C115.83 34.0138 117.188 33.4995 118.86 33.4995C119.362 33.4995 119.842 33.5406 120.323 33.6641C120.762 33.7669 121.18 33.9315 121.556 34.1372V36.6471ZM126.258 35.3716C126.446 34.7956 126.781 34.3018 127.261 33.9109C127.7 33.5818 128.244 33.4172 128.787 33.4378C129.121 33.4378 129.435 33.4789 129.748 33.5406C130.083 33.6229 130.396 33.7463 130.689 33.8904L129.853 35.8242C129.665 35.6802 129.435 35.5773 129.205 35.5156C128.954 35.4333 128.682 35.3922 128.432 35.4128C127.658 35.4128 127.115 35.7008 126.76 36.318C126.405 36.9352 126.237 37.9638 126.237 39.4039V43.8065H123.918V33.7875H126.237V35.3716H126.258Z" fill="#1AA64A"/>
<path d="M133.782 48.4971H131.378L134.179 42.9219L130.438 33.767H133.029L134.889 38.9308L135.182 39.8771C135.266 40.2063 135.328 40.5355 135.37 40.8852C135.558 40.3092 135.767 39.7537 136.039 39.2188L136.102 39.0954L138.609 33.767H141.138L133.782 48.4971ZM142.371 48.4971V33.7876H144.691V35.4334C144.942 34.8162 145.401 34.3019 145.987 33.9727C146.634 33.6024 147.366 33.4379 148.118 33.4379C149.393 33.3967 150.605 33.9522 151.399 34.9191C152.235 35.9066 152.653 37.2027 152.653 38.7868C152.653 40.4532 152.256 41.7904 151.42 42.7573C150.584 43.7242 149.456 44.1974 148.035 44.1974C146.676 44.2591 145.401 43.6008 144.67 42.4899V48.4971H142.371ZM144.628 38.7662C144.628 39.7948 144.9 40.6178 145.401 41.2555C145.903 41.8521 146.676 42.2019 147.47 42.1813C148.348 42.1813 149.038 41.8933 149.518 41.3172C149.999 40.7412 150.25 39.9183 150.25 38.8485C150.25 37.7787 149.999 36.9764 149.498 36.3798C148.975 35.7832 148.223 35.454 147.429 35.4746C146.551 35.4746 145.861 35.7626 145.381 36.3592C144.9 36.9558 144.628 37.7376 144.628 38.7662ZM155.704 43.8065V35.8037H153.928V33.7876H155.704V30.0022H158.024V33.7876H159.801V35.8037H158.024V43.8065H155.704ZM161.075 38.7868C161.055 38.0667 161.222 37.3673 161.514 36.7295C162.079 35.4128 163.165 34.3842 164.503 33.8699C165.882 33.335 167.408 33.335 168.787 33.8699C169.477 34.1373 170.083 34.5488 170.584 35.0631C171.107 35.5569 171.525 36.1535 171.796 36.8118C172.361 38.1284 172.382 39.6097 171.817 40.9263C171.546 41.5847 171.128 42.1607 170.605 42.6545C169.539 43.6831 168.097 44.2386 166.593 44.2386C165.861 44.2386 165.151 44.1151 164.461 43.8477C163.792 43.5802 163.165 43.1894 162.664 42.675C162.141 42.1813 161.744 41.5847 161.452 40.9263C161.201 40.2269 161.055 39.5068 161.075 38.7868ZM169.832 38.8279C169.853 37.9433 169.518 37.0998 168.892 36.4621C168.327 35.8449 167.512 35.4951 166.655 35.5157C165.799 35.5157 165.004 35.8654 164.419 36.4621C163.207 37.7993 163.207 39.836 164.419 41.1732C165.569 42.387 167.512 42.4487 168.745 41.3172C168.787 41.2761 168.85 41.2349 168.892 41.1732C169.498 40.5355 169.832 39.692 169.832 38.8279Z" fill="#1AA64A"/>
</svg>
