<svg width="208" height="54" viewBox="0 0 208 54" fill="none" xmlns="http://www.w3.org/2000/svg">
<path d="M76.9666 32.7347H73.1711V30.5327H83.5066V32.7347H79.7111V42.2089H76.9666V32.7347ZM86.1068 34.4193C86.4229 33.9856 86.8467 33.6575 87.3775 33.435C87.9196 33.2129 88.5408 33.1014 89.2411 33.1014V35.5036C88.9477 35.4812 88.7499 35.4701 88.6481 35.4701C87.8914 35.4701 87.2984 35.6814 86.8691 36.104C86.4398 36.5154 86.2251 37.1381 86.2251 37.9721V42.2089H83.582V33.2349H86.1068V34.4193ZM99.0462 33.2349V42.2089H96.5382V41.1412C96.1881 41.5303 95.7701 41.8306 95.2844 42.0419C94.7988 42.242 94.2735 42.3423 93.7087 42.3423C92.5113 42.3423 91.5626 42.003 90.8623 41.3247C90.162 40.6465 89.8118 39.6401 89.8118 38.3056V33.2349H92.4549V37.922C92.4549 39.3675 93.0706 40.0905 94.3017 40.0905C94.9343 40.0905 95.4427 39.8904 95.8269 39.4898C96.2108 39.0783 96.4027 38.4726 96.4027 37.6717V33.2349H99.0462ZM103.545 42.3423C102.788 42.3423 102.048 42.2532 101.326 42.0755C100.603 41.8862 100.026 41.6529 99.5971 41.3749L100.478 39.5067C100.885 39.7624 101.376 39.9737 101.952 40.1402C102.528 40.296 103.093 40.3739 103.647 40.3739C104.765 40.3739 105.324 40.1017 105.324 39.5565C105.324 39.3008 105.172 39.1173 104.867 39.0062C104.562 38.8952 104.093 38.8003 103.46 38.7225C102.715 38.6114 102.099 38.4834 101.613 38.3392C101.128 38.1946 100.704 37.9386 100.343 37.5719C99.9927 37.2048 99.8176 36.6823 99.8176 36.0037C99.8176 35.4369 99.9813 34.9364 100.309 34.5026C100.648 34.0577 101.133 33.713 101.766 33.4685C102.41 33.224 103.167 33.1014 104.036 33.1014C104.68 33.1014 105.318 33.1739 105.951 33.3185C106.595 33.4519 107.126 33.6409 107.544 33.8853L106.663 35.7369C105.861 35.2923 104.985 35.0698 104.036 35.0698C103.472 35.0698 103.048 35.1477 102.766 35.3031C102.483 35.4589 102.342 35.659 102.342 35.9038C102.342 36.1818 102.495 36.3762 102.799 36.4876C103.105 36.5987 103.59 36.7043 104.257 36.8046C105.002 36.9268 105.612 37.0602 106.087 37.2048C106.561 37.3382 106.973 37.5885 107.323 37.9555C107.674 38.3222 107.849 38.8339 107.849 39.4898C107.849 40.0458 107.68 40.5408 107.341 40.9743C107.002 41.408 106.504 41.7473 105.85 41.9918C105.206 42.2255 104.438 42.3423 103.545 42.3423ZM114.343 41.7751C114.083 41.964 113.761 42.1086 113.377 42.2089C113.004 42.2976 112.609 42.3423 112.191 42.3423C111.106 42.3423 110.265 42.0697 109.666 41.5249C109.079 40.98 108.785 40.1792 108.785 39.1231V35.4369H107.379V33.435H108.785V31.2502H111.428V33.435H113.699V35.4369H111.428V39.0895C111.428 39.4678 111.524 39.7624 111.716 39.9737C111.92 40.1738 112.202 40.274 112.564 40.274C112.981 40.274 113.337 40.1626 113.631 39.9401L114.343 41.7751ZM136.705 30.5327L132.825 42.2089H129.876L127.267 34.3025L124.573 42.2089H121.642L117.745 30.5327H120.591L123.268 38.7394L126.064 30.5327H128.605L131.317 38.8061L134.078 30.5327H136.705ZM140.032 33.1014C141.444 33.1014 142.529 33.435 143.286 34.1024C144.042 34.7583 144.421 35.7535 144.421 37.088V42.2089H141.947V41.0911C141.45 41.9251 140.524 42.3423 139.168 42.3423C138.468 42.3423 137.858 42.2255 137.338 41.9918C136.83 41.7585 136.44 41.4358 136.169 41.0244C135.898 40.613 135.763 40.146 135.763 39.6232C135.763 38.7895 136.079 38.1333 136.712 37.6552C137.355 37.177 138.344 36.938 139.677 36.938H141.778C141.778 36.3708 141.603 35.937 141.252 35.637C140.902 35.3255 140.377 35.1697 139.677 35.1697C139.191 35.1697 138.711 35.2476 138.236 35.4034C137.773 35.548 137.378 35.7481 137.05 36.0037L136.101 34.1857C136.598 33.841 137.191 33.5742 137.88 33.3852C138.581 33.1959 139.298 33.1014 140.032 33.1014ZM139.829 40.5906C140.281 40.5906 140.682 40.4907 141.032 40.2906C141.382 40.0793 141.631 39.7735 141.778 39.3733V38.4556H139.965C138.88 38.4556 138.338 38.8061 138.338 39.5067C138.338 39.8402 138.468 40.1071 138.728 40.3072C138.999 40.4961 139.366 40.5906 139.829 40.5906ZM145.796 29.8325H148.44V42.2089H145.796V29.8325ZM149.876 29.8325H152.52V42.2089H149.876V29.8325ZM162.885 37.755C162.885 37.7886 162.869 38.0222 162.835 38.4556H155.939C156.063 39.0116 156.356 39.4508 156.819 39.7735C157.283 40.0959 157.859 40.2571 158.548 40.2571C159.022 40.2571 159.44 40.1904 159.802 40.057C160.174 39.9124 160.519 39.6902 160.835 39.3899L162.242 40.891C161.383 41.8584 160.129 42.3423 158.48 42.3423C157.452 42.3423 156.543 42.1476 155.752 41.7585C154.961 41.3579 154.351 40.8077 153.922 40.1071C153.493 39.4065 153.278 38.6114 153.278 37.7219C153.278 36.8435 153.487 36.0538 153.905 35.3532C154.335 34.6418 154.916 34.0912 155.65 33.7022C156.396 33.3016 157.226 33.1014 158.141 33.1014C159.034 33.1014 159.841 33.2907 160.564 33.6686C161.287 34.0469 161.852 34.5917 162.258 35.3031C162.676 36.0037 162.885 36.8211 162.885 37.755ZM158.158 35.0698C157.559 35.0698 157.057 35.2364 156.65 35.5703C156.243 35.9038 155.995 36.3596 155.904 36.938H160.395C160.304 36.3708 160.056 35.9204 159.649 35.5869C159.242 35.2422 158.745 35.0698 158.158 35.0698ZM169.508 41.7751C169.248 41.964 168.926 42.1086 168.542 42.2089C168.17 42.2976 167.774 42.3423 167.356 42.3423C166.272 42.3423 165.43 42.0697 164.832 41.5249C164.244 40.98 163.951 40.1792 163.951 39.1231V35.4369H162.544V33.435H163.951V31.2502H166.594V33.435H168.864V35.4369H166.594V39.0895C166.594 39.4678 166.69 39.7624 166.882 39.9737C167.085 40.1738 167.367 40.274 167.729 40.274C168.147 40.274 168.503 40.1626 168.797 39.9401L169.508 41.7751Z" fill="#3375BB"/>
<path d="M53.8484 19.0882H42.3641C35.8809 19.0882 30.6252 24.2619 30.6252 30.644V41.9492C30.6252 48.3313 35.8809 53.5051 42.3641 53.5051H53.8484C60.3316 53.5051 65.5872 48.3313 65.5872 41.9492V30.644C65.5872 24.2619 60.3316 19.0882 53.8484 19.0882Z" fill="white" stroke="#DFE5EC" stroke-width="0.366284"/>
<path d="M31.9607 36.5452C31.9607 27.713 39.234 20.5532 48.2059 20.5532C57.178 20.5532 64.4514 27.713 64.4514 36.5452C64.4514 45.3775 57.178 52.5374 48.2059 52.5374C39.234 52.5374 31.9607 45.3775 31.9607 36.5452Z" fill="white"/>
<path d="M48.2153 26.9874C51.4936 29.6827 55.2531 29.5164 56.3271 29.5164C56.0923 44.8445 54.3019 41.8048 48.2153 46.1029C42.1289 41.8048 40.3499 44.8445 40.115 29.5164C41.1779 29.5164 44.9372 29.6827 48.2153 26.9874Z" stroke="#3375BB" stroke-width="2.22079" stroke-miterlimit="10" stroke-linecap="round" stroke-linejoin="round"/>
</svg>
